# xmcd
#
# Track frame offsets: 
#        150
#        16905
#        38842
#        56625
#        64832
#        78225
#        92557
#        109262
#        119347
#        136647
#        156540
#        177847
#        187752
#        206560
#
# Disc length: 2963 seconds
#
# Revision: 2
# Processed by: cddbd v1.5.2PL0 Copyright (c) Steve Scherf et al.
# Submitted via: ExactAudioCopy v0.95a4
#
DISCID=b30b910e
DTITLE=David Bromberg - How Late'll Ya Play 'Til? Volume 2  Studio
DYEAR=1989
DGENRE=Folk/Rock
TTITLE0=Danger Man II
TTITLE1=Get Up and Go - Fiddle Tunes
TTITLE2=Summer Wager
TTITLE3=Dallas Rag - Maple Leaf Rag
TTITLE4=Whoopee Ti Yi Yo
TTITLE5=Young Westley
TTITLE6=Dyin' Crapshooter's Blues
TTITLE7=Bluebird
TTITLE8=Idol with a Golden Head
TTITLE9=Chubby Thighs
TTITLE10=Kaatskill Serenade
TTITLE11=Kitchen Girl
TTITLE12=Long Afternoon
TTITLE13=Nashville Again
EXTD=
EXTT0=
EXTT1=
EXTT2=
EXTT3=
EXTT4=
EXTT5=
EXTT6=
EXTT7=
EXTT8=
EXTT9=
EXTT10=
EXTT11=
EXTT12=
EXTT13=
PLAYORDER=
